<?xml version="1.0" encoding="UTF-8" standalone="no"?>
<!DOCTYPE svg PUBLIC "-//W3C//DTD SVG 20010904//EN"
              "http://www.w3.org/TR/2001/REC-SVG-20010904/DTD/svg10.dtd">

<svg xmlns="http://www.w3.org/2000/svg"
     width="0.853333in" height="0.853333in"
     viewBox="0 0 256 256">
  <path id="hima"
        fill="black" stroke="none" stroke-width="1"
        d="M 242.06,102.83
           C 242.06,102.83 179.44,102.83 179.44,102.83
             179.44,102.83 179.44,68.27 179.44,68.27
             179.44,68.27 207.23,68.27 207.23,68.27
             207.23,68.27 207.23,49.38 207.23,49.38
             207.23,49.38 179.44,49.38 179.44,49.38
             179.44,49.38 179.44,11.30 179.44,11.30
             179.44,11.30 242.06,11.30 242.06,11.30
             242.06,11.30 242.06,102.83 242.06,102.83 Z
           M 200.48,170.59
           C 204.80,162.86 207.78,155.30 209.41,147.92
             209.41,147.92 188.61,147.92 188.61,147.92
             191.67,155.84 195.63,163.40 200.48,170.59 Z
           M 243.42,146.56
           C 239.64,163.49 233.16,179.87 223.98,195.70
             232.08,202.37 241.98,208.95 253.69,215.42
             253.69,215.42 233.70,251.59 233.70,251.59
             222.72,245.11 212.10,236.66 201.84,226.22
             193.20,235.94 183.57,244.76 172.95,252.69
             172.95,252.69 146.77,224.06 146.77,224.06
             159.18,216.32 169.98,207.87 179.16,198.69
             171.06,186.44 164.85,174.20 160.53,161.95
             160.53,161.95 180.23,147.92 180.23,147.92
             180.23,147.92 164.58,147.92 164.58,147.92
             164.58,147.92 164.58,113.36 164.58,113.36
             164.58,113.36 243.42,113.36 243.42,113.36
             243.42,113.36 243.42,146.56 243.42,146.56 Z
           M 171.06,106.88
           C 171.06,106.88 127.31,106.88 127.31,106.88
             127.31,106.88 127.31,121.45 127.31,121.45
             127.31,121.45 157.30,121.45 157.30,121.45
             157.30,121.45 157.30,157.91 157.30,157.91
             157.30,157.91 127.31,157.91 127.31,157.91
             127.31,157.91 127.31,174.92 127.31,174.92
             127.31,174.92 162.16,174.92 162.16,174.92
             162.16,174.92 162.16,213.27 162.16,213.27
             162.16,213.27 127.31,213.27 127.31,213.27
             127.31,213.27 127.31,249.98 127.31,249.98
             127.31,249.98 92.22,249.98 92.22,249.98
             92.22,249.98 92.22,11.30 92.22,11.30
             92.22,11.30 171.06,11.30 171.06,11.30
             171.06,11.30 171.06,106.88 171.06,106.88 Z
           M 141.62,74.48
           C 141.62,74.48 141.62,49.64 141.62,49.64
             141.62,49.64 126.23,49.64 126.23,49.64
             126.23,49.64 126.23,74.48 126.23,74.48
             126.23,74.48 141.62,74.48 141.62,74.48 Z
           M 81.95,212.19
           C 81.95,212.19 42.00,212.19 42.00,212.19
             42.00,212.19 42.00,228.11 42.00,228.11
             42.00,228.11 5.28,228.11 5.28,228.11
             5.28,228.11 5.28,14.27 5.28,14.27
             5.28,14.27 81.95,14.27 81.95,14.27
             81.95,14.27 81.95,212.19 81.95,212.19 Z
           M 51.19,93.38
           C 51.19,93.38 51.19,51.80 51.19,51.80
             51.19,51.80 37.95,51.80 37.95,51.80
             37.95,51.80 37.95,93.38 37.95,93.38
             37.95,93.38 51.19,93.38 51.19,93.38 Z
           M 51.19,174.66
           C 51.19,174.66 51.19,130.09 51.19,130.09
             51.19,130.09 37.95,130.09 37.95,130.09
             37.95,130.09 37.95,174.66 37.95,174.66
             37.95,174.66 51.19,174.66 51.19,174.66 Z" />
</svg>
